<?xml version="1.0" encoding="utf-8"?>
<!-- Generator: Adobe Illustrator 19.2.1, SVG Export Plug-In . SVG Version: 6.00 Build 0)  -->
<svg version="1.1" id="Ebene_1" xmlns="http://www.w3.org/2000/svg" xmlns:xlink="http://www.w3.org/1999/xlink" x="0px" y="0px"
	 viewBox="0 0 841.9 451" style="enable-background:new 0 0 841.9 451;" xml:space="preserve">
<style type="text/css">
	.st0{stroke:#01422D;stroke-width:0.185;}
</style>
<path d="M527.3,382.5c-4.8,20-19.9,28.5-45.2,28.5c-17.2,0-32.2-3.4-40-11.2c-8.4-8.3-9.7-19.6-9.7-31.8v-59.7h19.2v58.7
	c0,13.3,1.1,21.2,6.3,27c5.9,6.8,16,8.8,24.6,8.8c18.1,0,30.2-5.9,33.5-21.8c0.8-3.7,1.3-8.2,1.3-15.1v-57.5h11.8v53.5
	C529.1,371.7,528.5,377.3,527.3,382.5"/>
<path class="st0" d="M527.3,382.5c-4.8,20-19.9,28.5-45.2,28.5c-17.2,0-32.2-3.4-40-11.2c-8.4-8.3-9.7-19.6-9.7-31.8v-59.7h19.2
	v58.7c0,13.3,1.1,21.2,6.3,27c5.9,6.8,16,8.8,24.6,8.8c18.1,0,30.2-5.9,33.5-21.8c0.8-3.7,1.3-8.2,1.3-15.1v-57.5h11.8v53.5
	C529.1,371.7,528.5,377.3,527.3,382.5"/>
<path d="M624.6,327.2l-22.2,46.4h43.4L624.6,327.2 M661.6,408.7l-12.7-28.2h-49.9l-13.6,28.2h-12.2l50.1-100.5h11.9l49.1,100.5
	H661.6z"/>
<path class="st0" d="M624.6,327.2l-22.2,46.4h43.4L624.6,327.2 M661.6,408.7l-12.7-28.2h-49.9l-13.6,28.2h-12.2l50.1-100.5h11.9
	l49.1,100.5H661.6z"/>
<path d="M167,327.2l-22.2,46.4h43.4L167,327.2 M204,408.7l-12.6-28.2h-49.9l-13.6,28.2h-12.2l50.1-100.5h11.9l49.1,100.5H204z"/>
<path class="st0" d="M167,327.2l-22.2,46.4h43.4L167,327.2 M204,408.7l-12.6-28.2h-49.9l-13.6,28.2h-12.2l50.1-100.5h11.9
	l49.1,100.5H204z"/>
<path d="M331.5,410.9c-33.2,0-64.7-11.4-64.7-50c0-12.5,5.6-25.4,14-34.6c13.2-14.3,33.2-20,52.1-20c11.4,0,24.7,2.6,35,7.8V326
	c-9.3-7-21.6-11.8-33.6-11.8c-27.3,0-46.1,17.1-46.1,45.3c0,25.6,16.6,43.1,42.2,43.1c6.5,0,15.5-1.2,21.7-3.5v-36.7h19.2v41
	C359.9,408.5,343.9,410.9,331.5,410.9"/>
<path class="st0" d="M331.5,410.9c-33.2,0-64.7-11.4-64.7-50c0-12.5,5.6-25.4,14-34.6c13.2-14.3,33.2-20,52.1-20
	c11.4,0,24.7,2.6,35,7.8V326c-9.3-7-21.6-11.8-33.6-11.8c-27.3,0-46.1,17.1-46.1,45.3c0,25.6,16.6,43.1,42.2,43.1
	c6.5,0,15.5-1.2,21.7-3.5v-36.7h19.2v41C359.9,408.5,343.9,410.9,331.5,410.9"/>
<path d="M766.7,315.2h-14.1v48.1h12.4c10.4,0,16.6-1.9,21.4-5.8c5.1-4.1,8.1-10.4,8.1-18.8C794.4,321.6,782.1,315.2,766.7,315.2
	 M799.3,408.7l-26.6-38.6h-20.1v38.6h-19.2V308.2h36.4c14.8,0,29.5,2.1,37.7,11.2c4.3,4.7,6.6,11.3,6.6,19.8
	c0,15.5-11.7,24.9-22.1,28.6l29.5,40.8L799.3,408.7L799.3,408.7z"/>
<path class="st0" d="M766.7,315.2h-14.1v48.1h12.4c10.4,0,16.6-1.9,21.4-5.8c5.1-4.1,8.1-10.4,8.1-18.8
	C794.4,321.6,782.1,315.2,766.7,315.2 M799.3,408.7l-26.6-38.6h-20.1v38.6h-19.2V308.2h36.4c14.8,0,29.5,2.1,37.7,11.2
	c4.3,4.7,6.6,11.3,6.6,19.8c0,15.5-11.7,24.9-22.1,28.6l29.5,40.8L799.3,408.7L799.3,408.7z"/>
<path d="M34.5,429.4c-5.1,2.4-10.6,4-16.4,4c13.2-9.5,18.7-19.2,20.6-35.2c1.1-8.9,1.1-17.8,1.1-26.7v-63.2h19.2v76.1
	C59.2,402.8,52,420.8,34.5,429.4"/>
<path class="st0" d="M34.5,429.4c-5.1,2.4-10.6,4-16.4,4c13.2-9.5,18.7-19.2,20.6-35.2c1.1-8.9,1.1-17.8,1.1-26.7v-63.2h19.2v76.1
	C59.2,402.8,52,420.8,34.5,429.4"/>
<path d="M155.4,39.9c6.9,0.2,12.8-2.4,12.8-2.7s-7.6-1.1-7.6-1.1c-7,0.3-9.9,2.9-9.9,3.2C150.6,39.5,152.5,39.8,155.4,39.9"/>
<path d="M108.5,51.7c0,0,0.4-1.5,0.6-1.8c0.2-0.3,1.2-3.7,6-4.1c0,0,2.4-0.2,5.3,0.7c0,0-1.6,4.2-8.2,4.9
	C112.1,51.4,109.5,51.8,108.5,51.7 M757.3,240c-1.6,4.1-8.7,9.2-17,12c-8.7,2.9-27,3-36.4-0.1c0,0-2-2.1-8.5-4.1
	c-15.3-4.5-20.2-7.6-28-14.9c-5.5-5.1-11.5-11.5-17.4-17.5c-2.6-2.7-8.9-9-20.1-11c-11.6-2-40.1-4.2-50.6-7.9
	c-7.1-2.5-15.4-7.3-25.9-23c-5-7.5-8.9-9.7-16.1-14.4c0,0,5.5,4.4,8.5,9.7c4.2,7.7,6.2,13.3,8.5,17.4c2.3,4.1,5,7.8,9.2,11.2
	c5.2,4.2,8.5,5.1,14.4,6.3c5.6,1.1,24.7,2,41.2,2.6c16.1,0.6,23,5.6,28.1,9.9c4.6,3.9,12,15.1,17.2,19.7c6.9,6.1,7.1,6.2,15.2,11.2
	c4.1,2.6,7.7,4.2,11,5.4c7.4,4.3,4.3,11.9,4.3,11.9c-2.1,6-9.8,8.2-18.7,6.9c-13.5-1.2-25.1-12.4-34.8-20.5
	c-5.4-4.4-7.3-6.7-17.7-13.9c-15.8-11-52.9-10.1-52.9-10.1l-27.2-0.2c-53,0.8-72.4-41.9-77.7-50.8c-1.8-3.1-3.5-5.6-5.1-7.7
	c-2.5-3.3-15.8-20.7-30-26.9c0,0,13.7,11.8,12.3,18.3c-2.9,0-6.3,0.2-10.2,0.3c-53.4,1.6-64.5-1.4-72.9-3.1
	c-8.4-1.7-22.6-5.9-36.4-12.2c0,0,1.5-13.2-3.9-24.1c0,0,44.1,15.6,79.1,11.2c0,0-56.6-2.8-91.9-30.9c0,0,8.7,29.7,1.8,42.2
	c0,0-9.3,22.7-56.9,7.5c0,0-21.9-8.5-38.9-8.5c0,0-12.8,0.5-14.3,7.2c0,0-0.8,3.2,2.5,4.7c0,0,3.7,1.1,2,3.8
	c-2.9,4.6-6.9,8.1-10.9,10.1c-13.3-0.7-12.3-11.6-12.3-11.6c0.2-3.9,1.5-6.6,2.7-9.2c8.3-18.7,37.7-21.4,37.7-21.4
	c31.2-3.1,63.9,4.4,63.9,4.4c-23.4-5.6-31.3-9.7-38-15.2c-9-7.5-17.4-32.8-17.4-32.8c-3.6,12.4,0.9,24.9,3.9,31.3
	c-4.4-7.1-10.7-13-16.4-17.6c-14.4-11.5-35.3-15.3-35.3-15.3c-6-1-8.4-7.3-8.4-7.3c-7.7-14.3-16.5-14.9-16.5-14.9
	c4.3,5.9,3.9,14,3.9,14c0,14.9-19.2,19.9-19.2,19.9c-14.4,14.3-16.8,14-19.6,14.2c-2.8,0.2-4.9-2.7-4.9-2.7
	c-0.9-1.4,0.6-2.6,0.6-2.6c2.4-1.5,4.7-3.5,4.7-3.5c14-11.2,16-17,14.8-24.8c-2.3-15.7-14.9-14.5-14.9-14.5c-5.9,0-8.9,4.5-8.9,4.5
	c-2.3,2.7-7.3,11.3-7.3,11.3c-4.4,7.3-8.4,6.2-8.4,6.2c-4.9,0.3-8.4-4-8.4-4c-0.2-0.2-0.3-0.4-0.5-0.5c-3.6-3.9-0.5-8.5-0.5-8.5
	c5.9-10.5,16.2-11.5,17.6-11.6c1.4-0.1,6.1-0.4,6.1-0.4c11.6-0.8,19.1-11.9,19.1-11.9c-4.9-2.4-13.6-1.1-13.6-1.1
	c-8.5,0.6-10.7,9.6-10.7,9.6c-7.3,1.1-7-4.6-5.4-6c1.2-1.5,5.6-8.5,33.7-12.8c0,0,14.9-3,41.4,0c1,0.1,1.9,1,0.7,2.4
	c-3.3,3.9-13.8,12.6-30.5,8.4c0,0-0.3,6.7,17.9,10c0,0,16.4,3.5,43.3,25.1c0,0-13-24.1-35.5-31.4c0,0-1.7-1.1-0.2-2.6
	c0,0,10.6-9.5,29.4-8.5c0,0,62.1,3.2,97.1,39.6c0,0-1.2-6.1-6.5-14.9c0,0-1.1-1.1-0.5-1.8c0,0,0.5-1.5,6.5-0.3
	c0,0,22.2,3.6,73.7,22.5c0,0,38.6,13.5,59.6,22.3c31.6,13.1,110.9,45.3,161,73c8.9,4.9,46.2,23.3,46.2,23.3
	c27.8,17.3,53.4,29.8,53.4,29.8c25.2,11.7,43.6,6.3,43.6,6.3c5.9-2.2,17.1-8.3,21.4-4C758.5,234.4,758.6,237.2,757.3,240z
	 M763.6,230.2c-3.3-7.7-13.9-5.8-13.9-5.8c-4.9,0.3-11,5.4-19.5,7.1c-18.3,3.8-32.3-2.4-32.3-2.4c-27-12.1-45.2-25.2-57.1-32
	c-11.9-6.8-55.9-29.9-99.8-52c0,0-50.4-25.8-124.9-56.6c0,0-143.8-65.3-247.3-65.3c0,0-53.6-0.7-71.7,19.9c0,0-3.2,2.7-1.6,5.9
	c0,0,0.2,0.9-0.5,1.5c0,0-8,5.2-14.5,12.8c0,0-3.5,3.6-0.7,8.9c0,0,3.5,6,5.7,8.6c2.2,2.6,6.6,7.1,13.4,6.4c3-0.3,3.1-1.1,3.1-1.1
	c3.1,3.1,8.5,3.3,8.5,3.3c-0.5-1.9-2.6-5.7-2.8-7.9c-0.2-2.5,0.8-4.8,0.8-4.8c1.1-2.7,3.2-6.1,5.4-7.8c1.9-1.5,6.7-3,10.2-0.6
	c2.8,2,5.9,8.4,2.5,16.7c0,0-3.8,6.6-7.4,7.4l-1,0c-2,0-6.5-2.5-6.5-2.5s-0.2,0.5,0.3,2.8c0.3,1.3,0.7,2.7,1.1,3.8l-0.9,0.8
	c0,0-2.8,2.3-1.6,5.6c0,0,2.8,10.4,10.5,10.4c6.8,0.2,12.5-6.3,12.5-6.3c14.7-15.8,35.4-18,35.4-18c22.9-1.6,55.7,21.9,64.6,28.7
	c-34-0.4-47.7,12.7-47.7,12.7c-19.1,14.9-11.7,32.9-11.7,32.9c1.4,3.9,5.3,6.8,7.8,7.9c3.6,1.6,6.6,1.6,9.4,1.3c2-0.2,4.2-1,5.4-1.7
	c2.6-1.5,7.3-4.6,9.5-7.8c1.5-1.6,3-5.6,2-9.4c0,0-0.6-3,2.1-3.7c0,0,9-2.3,27.2,5.7c0,0,19.7,11.5,45.4,13.8c0,0,29.1,3,36.2-12.8
	c0,0,16.7,6.8,41.2,9.6c0,0,23.9,2.5,62.6-0.4c7.6-0.6,16.6,0.1,16.6,0.1c12.4,1.5,20.3,7.9,23.4,13c12.7,20.6,27.8,61,89.8,59.4
	l28.1-0.8c17.1,0,30.9,0.1,44.6,7.4c6,3.2,21.7,18.8,31.4,24.1c28.7,19.3,45.2,10.3,45.2,10.3c9.8-5.7,9-15.8,6.6-21.5
	c-2.9-0.9,35.5,5.6,51.9-15.9C764.1,237.3,764.7,232.9,763.6,230.2z"/>
</svg>
