<?xml version="1.0" encoding="utf-8"?>
<!-- Generator: Adobe Illustrator 19.2.1, SVG Export Plug-In . SVG Version: 6.00 Build 0)  -->
<svg version="1.1" id="Ebene_1" xmlns="http://www.w3.org/2000/svg" xmlns:xlink="http://www.w3.org/1999/xlink" x="0px" y="0px"
	 viewBox="0 0 514.1 581.9" style="enable-background:new 0 0 514.1 581.9;" xml:space="preserve">
<g>
	<path d="M514.1,109.9c-0.1,1.7-0.4,3.3-0.4,5c-0.2,17.4-1.6,34.7-3.3,51.9c-2,20.3-4.9,40.5-8.7,60.5c-9.5,49.6-24.7,97.4-47,142.8
		c-21,42.8-47.5,81.8-78.7,117.7c-23.2,26.7-48.4,51.3-75,74.5c-7.1,6.2-14.9,11.6-23.7,15.3c-6.9,2.9-14,4.5-21.5,4.2
		c-8.4-0.3-16.3-2.8-23.8-6.7c-6.4-3.4-12.3-7.5-17.7-12.3c-31.5-27.6-61.2-57-87.7-89.5C85.7,423.4,54.7,368.1,33.9,307
		c-8.9-26.3-15.9-53.1-21-80.4c-3.5-18.5-6.2-37-8.2-55.7C2.8,153,1.5,135,0.9,117.1c-0.1-3.3-0.6-6.7-0.9-10c0-5.9,0-11.8,0-17.8
		c0.3-1.4,0.7-2.8,0.9-4.2C1.3,82.6,1.5,80,2,77.5C4,66.4,8.8,56.8,17.1,49c5.7-5.4,12.4-9.3,19.5-12.4C51.6,30,67,24.9,82.8,20.6
		c36-9.8,72.7-15.1,109.8-18.1c14.3-1.2,28.6-2,42.9-2.1c1,0,2.1-0.2,3.1-0.4c11.8,0,23.7,0,35.5,0c1,0.1,2.1,0.3,3.1,0.4
		c11.5,0.5,23,0.8,34.5,1.6c11.4,0.8,22.8,1.7,34.2,3.1c13.9,1.7,27.7,3.7,41.5,6c21.1,3.5,41.8,8.5,62.2,15
		c11.1,3.5,22.1,7.4,32.7,12.4c7.8,3.7,14.6,8.6,20,15.4c7.2,9,10.6,19.4,11.4,30.8c0.1,1.1,0.3,2.2,0.5,3.3
		C514.1,95.2,514.1,102.6,514.1,109.9z M255.2,14.9c-16,0.2-33.4,0.6-50.9,1.8c-17.5,1.2-34.9,2.9-52.2,5.3
		c-18.2,2.5-36.3,5.8-54.2,10.2c-19,4.6-37.7,10.4-55.7,18.2c-4,1.7-7.8,3.8-11.2,6.4c-6.6,5-11.1,11.4-13.4,19.4
		c-2.1,7.5-2.4,15.1-2.3,22.8c0.3,20.2,1.2,40.5,3.3,60.6c1.4,13.8,3,27.5,5,41.2c3.3,22.9,8.2,45.4,14.2,67.8
		c17.5,64.8,46.2,124.2,86.6,177.8c29.2,38.8,63.2,73.2,99.7,105.2c5.7,5,11.9,9.2,18.9,12.1c6.9,2.9,14,3.9,21.3,2.3
		c6.6-1.4,12.6-4.3,18-8.3c5.1-3.7,10-7.8,14.7-12c25.7-22.8,50-47,72.2-73.2c28.8-34,53.4-70.9,72.9-111
		c25.2-51.9,40.8-106.8,49.3-163.7c2.1-14.3,3.8-28.7,5-43.1c1.4-16.6,2.3-33.2,2.7-49.8c0.2-7.8,0.4-15.5-0.9-23.2
		c-1.6-9.9-5.8-18.3-13.9-24.3c-2.5-1.9-5.1-3.7-7.9-4.9c-6.2-2.8-12.5-5.4-18.8-7.7c-25.9-9.5-52.7-15.6-79.8-20.1
		c-21.5-3.6-43.1-6-64.8-7.6C294.2,15.6,275.5,15,255.2,14.9z"/>
	<path d="M234.3,388c-0.5,0.8-1,1.6-1.5,2.4c-0.5,0.7-0.9,1.6-1.5,2.1c-1.2,1.2-2.6,0.9-3.2-0.7c-1.1-2.5-1.1-5.1,0.4-7.4
		c1.3-2,2.9-3.8,4.3-5.7c2.5-3.2,5.3-6.2,7.5-9.6c1.8-2.7,3-5.8,4.4-8.7c0.3-0.6,0.3-1.3,0.5-2.3c-3.6,0.8-6,2.3-7.3,5.3
		c-0.7,1.6-1.4,3.2-2.1,4.8c-1.5,3.2-3.6,6.1-6.5,8.2c-4.6,3.2-7.6,7.5-9.6,12.6c-2.1,5.1-4,10.3-6,15.4c-0.6,1.6-1.2,3.1-2,4.6
		c-1.7,3.2-4.3,5.3-7.9,6.1c-2.2,0.5-4.4,0.9-6.6,1.2c-2.4,0.3-2.9-0.2-2.9-2.6c0-0.9,0.2-1.8,0.1-2.6c0-0.7-0.2-1.4-0.6-2
		c-0.2-0.4-0.9-0.8-1.3-0.7c-0.4,0.1-0.8,0.7-0.9,1.2c-0.2,0.9-0.5,1.6-1.4,1.8c-1.3,0.3-2.7,0.6-4,0.5c-0.4,0-0.9-1.1-1-1.7
		c-0.2-2.2-0.4-4.5-0.3-6.7c0.3-6,2.5-11.2,7.5-14.9c3.9-2.9,7.8-5.8,11.7-8.8c1.6-1.2,3.1-2.5,4.6-3.8c1.3-1.2,2-2.9,2-4.7
		c0-2.6-0.1-5.3,0.8-7.8c0.1-0.3,0.2-0.7,0-0.9c-1.5-3.2-0.9-6.8-1.2-10.1c-0.5-4.8-0.8-9.7-1.1-14.6c-0.1-1.2-0.8-1.7-1.7-2
		c-1-0.3-1.6,0.3-2.1,1.1c-3.5,5.7-7.1,11.4-10.5,17.2c-1.9,3.2-3.4,6.5-5.2,9.7c-0.7,1.3-1,2.6-1,4.1c-0.2,3.1-0.4,6.2-1,9.3
		c-0.9,4.5-3.3,8.1-6.9,10.9c-1.3,1-2.5,1.9-3.8,2.9c-1,0.8-1.5,1.6-1.5,3c0.2,4.8,0.2,9.6,0.3,14.4c0.1,2.8-0.5,5.2-2.9,7
		c-1.4,1-1.8,2.6-1.9,4.3c-0.2,2.1-0.2,4.1-0.2,6.2c-0.1,3.1-0.5,3.7-3.6,4.4c-4.9,1.1-9.8,1.1-14.8,1c-0.5-3,1.2-6-0.8-9
		c-0.4,0-1.1-0.1-2-0.1c-0.1,2-0.1,3.9-0.2,5.7c-0.1,0.9-0.1,1.8-0.4,2.6c-0.5,1.2-1.8,1.4-2.4,0.3c-1.8-3.1-3.8-6.1-2.4-10.1
		c1.6-4.4,3.6-8.6,7.4-11.5c0.7-0.5,1-1.1,1.1-2c0.2-3.8,2-7,4.3-10c2.6-3.4,5.8-6.2,9.3-8.8c-0.2-2-0.4-4-0.6-6
		c-0.1-2.2-0.2-4.5-0.3-6.7c0-2.7,0.6-5.2,2.2-7.5c2.2-3.3,4-6.8,4.2-10.8c0.2-3.2-0.1-6.4-0.4-9.6c-0.2-3-0.7-6-1-9.1
		c-0.3-3.6-0.1-7.2,0.7-10.7c0.4-1.5,1-3.1,1.8-4.4c2.3-3.8,3.1-8,3.5-12.3c0.1-0.5,0-1.1-0.1-1.7c-1.6-6.2-0.8-12.4,0.3-18.5
		c1.2-6.6,4-12.5,7.5-18c2.5-4,5-8,7.8-11.8c3.6-4.9,4.4-10.3,3.6-16.1c-0.8-5.7-0.3-11.4,0.9-16.9c0.4-1.7,1.4-3.2,2.4-4.7
		c2.1-3.1,4.8-5.6,7.7-7.9c6.3-5.1,13.3-9.1,20.5-12.8c2.5-1.3,5-2.5,7.5-3.8c2.7-1.4,5.1-3.3,7-5.8c4.1-5.3,9.7-8.8,15.3-12.2
		c3.1-1.9,6.5-2,10-1c2.1,0.6,4.2,1.4,6.3,2.3c11.2,4.7,22.9,8.1,34.9,10.3c2,0.4,4.1,0.6,6.2,0.4c3.2-0.2,4.6-1.7,4.1-4.9
		c-0.5-3-1.4-6-2.5-8.9c-0.8-2.1-2.6-3.7-4.7-4.6c-1.8-0.8-3.7-1.5-5.6-1.9c-8-1.7-16.1-2.3-24.3-2.1c-12.5,0.4-24.9,0.7-37.4,0.8
		c-6.7,0.1-13.4-0.4-19.9-2.6c-2.5-0.9-4.8-2-7-3.7c-3.7-2.7-5.3-10-1.7-14c1.6-1.8,3.3-3.5,5.2-4.9c9.1-6.4,19.2-9.7,30.3-9.7
		c12.1,0,23.7,2.2,35,6.2c1.6,0.6,3.1,1.4,4.5,2.3c0.8,0.5,1.5,1.4,2,2.3c0.8,1.6,0.2,3.2-1.5,3.7c-3.7,1.2-7.4,1.5-10.9-0.7
		c-2-1.3-4-1.9-6.3-1.8c-0.7,0-1.4,0-2.2,0.1c-1.8,0.2-3.3-0.3-4.5-1.7c-0.5-0.6-1.2-1-1.8-1.5c-1.6,2.1-1.4,3.5,0.5,4.7
		c1.9,1.2,4,1.5,6.2,1.5c0.6,0,1.3-0.1,1.9-0.1c2.1,0,3.7,1.5,3.7,3.6c0,0.6-0.6,1.4-1.1,1.6c-1.1,0.4-2.3,0.7-3.5,0.7
		c-7.4,0.5-14.9,1-22.2-1c-4.7-1.3-9-3.2-12.6-6.6c-2-1.8-4.3-2.4-6.6-1.2c-2.6,1.2-5.1,2.7-7.4,4.3c-2.1,1.5-1.9,3.1,0.5,4
		c1.9,0.8,3.9,1.3,6,1.7c15.3,2.8,30.8,3.6,46.3,2.6c7.3-0.4,14.7-0.7,22.1-0.6c3.6,0,7.2,0.7,10.6,1.6c10.5,2.7,16.8,9.7,19.4,20.1
		c1.4,5.8,1.2,11.2-2.5,16.9c0.4,0.7,0.9,1.4,1.4,2.1c5.5,7.7,10.8,15.5,16.6,22.9c5.4,6.9,7,14.6,6,23c-0.8,6-0.5,11.8,0.9,17.6
		c1.7,6.9,2.3,13.9,2.2,20.9c0,0.6,0,1.1-0.1,1.9c-2.8,0.4-5.6,0.3-8.4,0.4c0.5-2.8-0.2-5.4-0.9-7.9c-0.6-2.2-1.2-4.3-1.9-6.5
		c-1.9-5.9-2.1-11.8-0.6-17.7c2.3-8.6,0.9-16.6-3.6-24.2c-1.7-3-3.6-5.9-5.5-8.7c-3.9-5.5-7.9-10.9-11.8-16.3c-1-1.3-2.1-2-3.7-1.5
		c-3,1-6,2-9,3.2c-0.7,0.3-1.2,1.1-2.1,1.9c0.9,0.4,1.4,0.6,1.9,0.7c2.8,0.5,4.8,2.1,5.7,4.9c1.3,4.3,2.7,8.5,3.6,12.9
		c1,4.9-1.1,6.8-6.1,6.4c-3.9-0.4-7.3-1.9-9.9-4.8c-2-2.2-3.9-4.5-5.6-6.9c-7.3-9.9-15.3-19.1-23.3-28.4c-0.2-0.2-0.4-0.5-0.6-0.7
		c-0.9-0.7-1.8-0.4-2.2,0.8c-0.3,1.2,0,2.1,0.8,3.1c3.7,4.6,7.3,9.3,11,13.9c10.1,12.4,17.8,26.2,23.8,40.9c1.3,3.1,2.5,6.2,2.8,9.6
		c0.1,1.1-0.1,2.2-0.1,3.1c-1.6,0.7-2.5-0.2-3.2-0.9c-1.5-1.5-2.7-3.3-3.3-5.5c-1.3-4.2-2.8-7-5.3-9.6c-0.3,0.9-0.7,1.6-0.8,2.4
		c-0.3,1.6-1.3,2.3-2.7,2.7c-2.1,0.6-4.3,0.7-6.4,0.1c-0.8-0.2-1.5-0.4-2.3-0.6c-1-0.2-2-0.2-2.5,0.9c-0.5,1-0.8,2.1,0,3.2
		c0.6,0.9,1.4,1.1,2.5,0.9c2.2-0.5,4.4-0.5,6.7,0c3.2,0.7,4.7,2.5,4.9,6c-0.4,0.1-0.9,0.2-1.3,0.3c-0.4,0-0.8,0-1.3,0
		c-0.4-1.5-1.5-1.8-2.9-1.7c-1.6,0.1-3.2,0-4.8,0c-0.2,1.3-0.4,2.4-0.7,3.8c1.3,0.2,2.4,0.6,3.6,0.6c2.6,0.2,5.1,0.1,7.7,0.3
		c5.3,0.3,7.4,2,8.8,7.1c0.1,0.2,0.2,0.4,0.3,0.7c4.2,0,8.5,0,12.7,0c2.4,0,4.8,0,7.2,0.4c7.6,1.3,13.6,5.2,18.8,10.8
		c0.5,0.6,1.1,1.2,1.6,1.8c3.3-1,6,0.3,8.4,2.2c2.7,2.2,5.4,4.5,7.8,7.1c6.4,7.2,14.6,8.7,23.6,8c1.5-0.1,2.9-0.6,4.1-1.7
		c1.1-1,2-1,2.8-0.4c0.8,0.7,1,2,0.2,3.1c-0.8,1.2-1.8,2.3-2.9,3.2c-7.9,6.7-16.8,8.9-26.8,5.7c-5.4-1.7-10.2-4.6-14.3-8.6
		c-2.4-2.4-5-4.5-8.6-4.8c-1.4-0.1-1.9-0.9-1.9-2.6c0-2.8,0-5.6,0-7.9c-3.3-1.5-6.3-2.6-9.1-4.1c-3.8-1.9-7.8-2.7-12.1-2.3
		c-0.4,0-0.8,0.1-1.2,0.2c0,1.3,1,1.9,1.8,2.4c1.5,1,3.2,1.9,4.7,2.8c1.1,0.7,2.3,1.3,1.9,3c-0.2,1-1,1.3-3.3,0.9
		c-2.1-0.3-4.1-0.7-6.1-1.2c-2.5-0.6-4.6-1.9-5.8-4.3c-0.4-0.8-1-1.2-1.8-1.3c-0.9-0.2-1.9-0.3-2.7-0.5c-0.1,0.1-0.2,0.2-0.2,0.3
		c-0.9,3.6-1,3.6-4.8,3.9c-1,0.1-2,0.3-2.9,0.4c-1.4,2.7-1.1,4.2,1.9,5.8c3.1,1.7,6.6,2.3,10.1,2.9c3.6,0.5,7.1,0.9,10.7,1.2
		c3,0.3,5.9,0.2,8.7-1.1c1-0.5,2.3-1,3.1,0.2c0.7,1-0.2,2-0.9,2.8c-3.8,4.6-8.8,7.1-14.6,7.9c-7.5,1.1-14.8,0.1-21.9-2.8
		c-5.1-2.1-9.5-5.3-12.9-9.7c-3.6-4.6-4.6-9.7-3.4-15.4c0.6-2.6,2-4.4,4.5-5.1c3.1-0.9,6.2-1.5,9.3-2c1.7-0.3,3.5-0.3,5.2-0.5
		c-0.3-3-0.5-3.4-3-3.6c-2.6-0.2-5.3-0.1-7.8,0.4c-2.5,0.5-4.9,1.4-7.3,2.4c-1.8,0.7-3.3,0.9-5.1,0.1c-1.1-0.5-2.2-1-3.3-1.4
		c-2.2-0.8-4.4-0.8-6.7,0.3c0.2,4,0.6,8,2.2,11.7c0.4,0.9,1.2,1.7,1.9,2.4c2.2,2,4.5,3.9,6.6,5.9c1.4,1.3,2.7,2.7,3.8,4.3
		c2.7,3.7,2.6,8.3,0.1,12.1c-4.3,6.4-7.5,13.4-10,20.7c-1,2.9-1,6-0.7,9c0.1,0.8,0.5,1.6,0.7,2.4c1.5,0.2,2-0.7,2.5-1.5
		c1.1-1.8,2.1-3.8,3.1-5.7c0.7-1.3,1.3-2.6,2.1-3.7c1.1-1.5,2.5-1.9,4-1.3c1.7,0.6,2.6,1.8,2.5,3.6c-0.1,1.6-0.3,3.2-0.8,4.7
		c-1.5,3.8-3.1,7.5-4.7,11.3c-1.2,2.6-2.2,5.3-2.4,8.2c-0.2,3.8,0.6,7.3,2.2,10.7c0.2,0.5,0.7,0.8,1.3,1.6c0.5-1.3,1-2.3,1.4-3.3
		c0.8-2.1,2-2.8,4.1-2c1.3,0.5,2.6,1.4,3.5,2.4c1.6,1.9,0.7,3.9-1.7,4.5c-1,0.2-2,0.3-3.3,0.4c0.9,1.9,2.2,3.2,4.1,3.4
		c1.6,0.2,3.2,0.1,4.8-0.1c2.8-0.5,5.5-1.1,8.2-1.7c3.1-0.7,5.2-2.6,5.9-5.7c0.8-3.4,1.3-6.9,1.9-10.4c0.3-2,0.4-4.1,0.8-6.2
		c0.7-3.8,2.5-7.1,4.7-10.1c3.8-5.2,8.5-9.4,13.6-13.1c1.8-1.3,3.6-2.6,5.6-3.7c2.4-1.4,3.8-3.4,4.2-6.1c0.5-2.6,0.8-5.2,1.4-7.8
		c0.3-1.6,0.8-3.1,1.4-4.5c1.1-2.3,2.7-2.7,4.9-1.4c4.5,2.5,7.5,6.3,9.5,11.1c1.9,4.7,2.9,9.7,3.3,14.7c0.5,6.1,0.7,12.3,1,18.4
		c0.3,8.3,0.8,16.6,2.5,24.8c0.4,2.2,1.2,4.3,2,6.4c0.8,1.9,1.1,3.8,0.7,5.9c-0.3,1.3-0.6,2.7-0.9,4c-1,3.2-3,4.5-6.4,4
		c-0.6-0.1-1.2-0.3-1.8-0.4c0.3-3.4-0.1-3.9-2.8-4.7c-1.3,1.6-0.5,3.8-1.4,5.9c-3-1.1-5.9-2.1-8-4.5c-2.1-2.4-2-5.3-1.2-8.2
		c0.5-1.8,1.2-3.6,1.9-5.4c0.9-2.3,1.4-4.4,0.1-6.9c-0.7-1.2-0.3-3.1-0.2-4.7c0.2-3.3,0.5-6.7,0.9-10c0.2-2.3-0.7-4.2-1.9-6
		c-3-4.3-5.8-8.6-8.7-12.9c-0.3-0.5-0.7-1-1.2-1.7c-0.8,0.5-1.6,0.9-2.3,1.4c-2.6,2-5.2,4-7.6,6.2c-3.5,3.2-5.5,7.3-6.5,11.8
		c-1.2,5.3-1.9,10.7-2.9,16c-0.2,1-0.3,2.1-0.5,3.1c-1.1,5.8-4.5,9.3-10.4,10.1c-6.8,1-13.6,0.8-20.3-0.4c-5-1-8.7-3.7-10.3-8.7
		c-1.1-3.5-1.9-7.1-2.8-10.6c-0.3-1-0.3-2-0.5-3c-4-0.2-6.2,1.7-6.2,5.5c0,1.8,0.4,3.6,0.7,5.5c0.1,0.8,0.3,1.6,0.3,2.4
		c0.1,2.1-0.5,2.9-2.4,3.6c-3.5,1.3-3.5,1.4-2.5,5c0.4,1.5,0.9,3.1,1.3,4.6c0.8,3.6-0.4,5.6-4,6.2c-4.3,0.7-8.5,1.3-12.8,1.8
		c-1.1,0.1-2.2,0.1-3.3-0.2c-1.6-0.3-1.9-1.1-1.3-2.6c0.2-0.5,0.5-1,0.8-1.4C236.5,390.4,236.5,390,234.3,388z M259.8,350.1
		c-1.6-4.6-3.2-8.7-5.9-12.2c-2.9-3.8-5.4-7.9-6.4-12.7c-0.9-4.4-0.2-8.5,2.8-11.9c2.1-2.4,4.4-4.7,6.5-7c1.1-1.2,2.3-2.3,3.3-3.5
		c1.4-1.6,1.8-3.4,1-5.4c-0.5-1.3-1.1-2.7-1.9-3.8c-1.5-2.2-2.6-4.6-3.4-7.1c-0.7-2.1-1.6-4.2-2.5-6.2c-0.6-1.2-1.5-2.3-2.4-3.3
		c-1.5-1.5-3.2-1.9-5.3-1.1c-1,0.4-2.1,0.8-3.1,1.2c-1.3,0.5-2.3,1.4-2.8,2.7c-0.7,1.7-1.5,3.4-2.3,5c-1.1,2.4-3,3.9-5.6,4.5
		c-4.1,1.1-7.8,0.3-11.1-2.1c-0.7-0.5-1.4-1.1-2.1-1.5c-2.7-1.6-5.1-1-6.8,1.6c-0.5,0.7-0.8,1.6-1.2,2.4c-0.6,1.4-1.2,2.8-1.8,4.2
		c-1.7,4.3-7.2,5-10.5,1.3c-0.4-0.4-0.6-0.9-1-1.3c-1-1-1.9-1.1-2.9-0.1c-2.4,2.5-4.3,5.2-4.1,8.9c0.1,2.5-0.6,4.9-1.4,7.2
		c-2.6,7.4-5.1,14.8-7.4,22.3c-1.3,4.2-2.1,8.6-1.7,13c0.1,1.2,0.3,2.4,0.8,3.5c0.8,1.7,2.4,1.9,3.7,0.7c0.6-0.6,1.2-1.3,1.7-2
		c4-5.7,7.9-11.4,11.8-17.2c0.4-0.6,0.9-1.2,1-1.9c0.4-2.5,2.1-3.5,4.4-3.8c6.1-0.8,12.3-1.1,18.4-0.5c2.9,0.3,5.7,0.8,8.1,2.6
		c1.3,0.9,2.2,2.2,1.9,3.9c-0.3,1.6-1.7,2.1-3,2.4c-1.9,0.4-3.9,0.6-5.9,0.7c-3.5,0.2-3.8,0.4-3.8,3.9c0,0.4,0,0.8,0.1,1.2
		c0.7,3.7,1.4,7.4,2.1,11.1c0.1,0.6,0.4,1.2,0.7,1.8C234.5,351.1,246.9,350.6,259.8,350.1z M271.3,225.6c0,1.6-0.9,2-2,2.1
		c-2,0-4,0-6-0.1c-3.7-0.2-4.8,0.9-4.5,4.6c0,0.2,0,0.3,0,0.5c0.1,1.1,0.7,1.8,1.8,1.8c2.3,0,4.7,0.3,6.9-0.3
		c2.8-0.8,4.2,0.3,5.6,2.3c1.6,2.2,3.2,4.4,5,6.4c0.9,1.1,2.1,2,3.3,2.7c1.8,1.1,3.5,0.7,4.9-0.9c1.1-1.3,1.7-2.9,1.7-4.6
		c-0.2-5.5-2.2-10.3-6.7-13.7c-3-2.3-6.5-3.3-10.1-4.3c-0.3-0.1-0.6-0.1-0.9-0.1c-0.9,0.1-1.5,0.7-1.5,1.6c0,0.5,0.5,1.1,0.9,1.4
		C270.1,225.2,270.7,225.3,271.3,225.6z M231.9,274.6c-0.9-2.2-1.8-3.7-3.6-4.8c-1.6-1.1-3-2.6-4.2-4.2c-2.5-3.1-4-6.9-5.1-10.7
		c-0.2-0.7-0.4-1.4-0.6-2.1c-0.9,0-1.8,0-2.7,0c0,2.3,0,4.4,0,6.5c0,1-0.3,1.6-0.9,2.3c-0.9,1-1.7,2.1-2.2,3.4
		c-1.7,4.3,0.4,8.4,4.8,9.3C222.1,275.3,226.8,275.1,231.9,274.6z M347.9,341.9c-0.5-5.4-0.9-10.8-1.4-16.2c0-0.3,0-0.6-0.1-1
		c-0.3-1.1-0.5-2.2-1-3.2c-0.5-1.1-1.4-1.2-2.3-0.4c-0.5,0.5-1,1-1.4,1.6c-1.1,1.9-2.1,3.8-3.2,5.6c-1.6,2.6-1.3,5,0.3,7.4
		c1.3,2,2.6,4,4.1,5.9c0.6,0.8,1.4,1.5,2.3,2C346.9,344.6,348.1,343.7,347.9,341.9z M175.3,381.3c2.4,0.1,3.9-1.1,4.9-2.8
		c0.8-1.4,1.4-3,1.9-4.6c0.5-1.4-0.2-2.7-1.6-3.6c-1.1-0.7-2.1,0-2.8,0.6c-0.9,0.8-1.7,1.7-2.1,2.8
		C174.5,376.1,174.5,378.6,175.3,381.3z M227,362.9c-0.5,0.3-1.7,0.5-2.4,1.3c-1.1,1.2-2,2.7-2.8,4.1c-0.5,0.8-0.7,1.9,0.2,2.6
		c0.8,0.8,1.8,1.3,3,1c2.1-0.4,4.9-3.3,5.2-5.4C230.6,364.5,229.4,362.9,227,362.9z M250.4,151.2c2.8,0.8,5.4,1.8,8.1,2.4
		c2,0.5,2.5-0.1,2.7-2.2c0.1-0.7,0.2-1.4,0.3-2.3c-0.8-0.3-1.5-0.6-2.2-0.8c-1.3-0.3-2.7-0.4-4-0.6
		C252.3,147.3,251.6,147.8,250.4,151.2z"/>
	<path d="M143.7,73.6c0.3-0.8,0.6-1.6,0.8-2.4c3.4-10.4,6.7-20.8,10-31.3c0.5-1.5,1.2-2.3,2.7-2.4c2.5-0.3,5-0.8,7.8-1.2
		c0,20.2,0,40.2,0,60.5c-2.9,0.5-5.8,1-9.1,1.5c0-10.1,0-19.9,0-29.8c-0.2,0-0.4-0.1-0.6-0.1c-3.9,11.6-7.4,23.3-11.7,34.9
		c-4.1-11.3-8.1-22.7-12.2-34c-0.2,0-0.3,0.1-0.5,0.1c0,10.7,0,21.3,0,32.1c-3.2,0.6-6.3,1.2-9.5,1.8c0-20.1,0-40,0-60
		c3.2-0.6,6.4-1.2,9.7-1.8c4,10.8,8,21.4,11.9,32C143.4,73.6,143.5,73.6,143.7,73.6z"/>
	<path d="M417.3,50.3c0.8,0.1,1.5,0.2,2.2,0.3c2.1,0.5,4.2,1.1,6.3,1.5c1.8,0.3,2.7,1.1,3.3,2.9c2.4,6.8,5.1,13.6,7.6,20.4
		c2.1,5.5,4.1,10.9,6.2,16.4c0.2,0.6,0.4,1.1,1,1.6c0-12,0-24,0-36.4c3.3,1.1,6.3,2,9.4,3c0,20.6,0,41.2,0,62
		c-3.4-1-6.7-1.8-9.9-2.9c-0.6-0.2-1.1-1.3-1.4-2c-3.6-9.5-7.1-19-10.6-28.5c-1.2-3.4-2.5-6.7-3.8-10.1c-0.2-0.5-0.4-1-1.1-1.4
		c0,6.1,0,12.2,0,18.2c0,6.1,0,12.3,0,18.7c-3.3-0.9-6.3-1.8-9.3-2.6C417.3,90.9,417.3,70.7,417.3,50.3z"/>
	<path d="M203.9,61c7,6.1,7.4,20.1,0.9,27.1c-2.5,2.6-5.3,4.8-8.9,5.4c-6.8,1.1-13.6,2-20.2,2.9c-1-1.2-0.7-2.2-0.7-3.2
		c0-16.3,0-32.6,0-48.9c0-3.2,0-6.4,0-9.8c1.5-0.2,3-0.5,4.4-0.7c3.3-0.5,6.6-0.9,10-1.3c4.3-0.6,8.3,0,12,2.4
		c5.5,3.7,7.7,8.8,6.8,15.3C207.6,53.9,206.3,57.6,203.9,61z M184.6,85.6c2.8-0.4,5.4-0.8,8.1-1c2.6-0.2,4.2-1.6,5.6-3.7
		c1.8-2.7,1.8-5.7,1.3-8.8c-0.5-3.4-2.2-5-5.6-5c-3.1,0.1-6.2,0.6-9.4,0.9C184.6,74,184.6,79.7,184.6,85.6z M184.8,42.3
		c0.1,5.6-0.2,10.9,0,16.4c2.7-0.3,5.1-0.6,7.5-0.9c1.6-0.2,2.8-1,3.8-2.3c1.6-2,2.6-4.4,2.7-7c0.2-4.9-2.9-7.8-7.8-7.2
		C189,41.6,187,42,184.8,42.3z"/>
	<path d="M297.6,94.2c-3.4,0-6.6,0-10,0c-3-8.6-6-17.2-9-25.9c-2.4,0-4.7,0-7.3,0c0,8.5,0,17,0,25.7c-3.2,0-6.2,0-9.1,0
		c-0.5-1.4-0.5-59.5,0-63c0.3-0.1,0.7-0.2,1.1-0.2c5.2,0,10.4,0,15.6,0.1c3,0,5.9,0.6,8.6,1.8c5.2,2.1,8.5,5.9,9.7,11.4
		c0.9,3.8,1,7.6-0.1,11.4c-1.2,4.3-3.7,7.8-7.5,10.2c-0.5,0.3-0.9,0.6-1.6,1C291.2,75.7,294.4,84.8,297.6,94.2z M271.3,58.5
		c0.8,0.1,1.5,0.1,2.2,0.1c2.4,0,4.8,0,7.2,0c2.5,0.1,4.5-1.1,5.9-3.1c2.3-3.3,2.3-6.9,1-10.5c-1.1-3.2-3.9-4-6.8-4.5
		c-0.2,0-0.3-0.1-0.5-0.1c-2.3-0.4-7.4-0.3-9,0.2C271.3,46.6,271.3,52.5,271.3,58.5z"/>
	<path d="M376.2,40.6c3.2,0.5,6,1,9,1.4c0,21,0,41.7,0,62.8c-3.2-0.5-6.2-1-9.4-1.5c0-8.6,0-16.9,0-25.4c-5.5-1-10.7-2-16.1-3
		c-0.5,2.2-0.2,4.3-0.3,6.4c-0.1,2.2,0,4.3,0,6.5c0,2.1,0,4.2,0,6.2c0,2.1,0,4.3,0,6.7c-3.3-0.2-6.3-0.8-9.4-1.4
		c0-20.9,0-41.8,0-62.8c3.1,0.5,6.2,0.9,9.4,1.4c0,9.1,0,18.1,0,27.4c5.6,1.1,11.1,2.1,16.8,3.2C376.2,59.2,376.2,50,376.2,40.6z"/>
	<path d="M254.3,60.7c-0.2,7.1-0.5,12.9-2.3,18.5c-1.2,3.8-3.1,7.3-5.7,10.4c-6.2,7.3-18.2,7.7-24.5-1c-2.9-4-4.7-8.5-5.5-13.4
		c-1.4-9.1-1.4-18.1,0.7-27.1c1.3-5.3,3.6-10.1,7.6-13.9c4.4-4,9.5-5,15.1-3.5c3.5,0.9,6.2,3.3,8.3,6.2c2.9,4.1,4.7,8.7,5.3,13.7
		C253.8,54.4,254.1,58.2,254.3,60.7z M224.6,62.1c0.2,3.7,0.3,6.2,0.6,8.8c0.4,4.3,1.6,8.3,4.2,11.8c2.9,3.9,7.2,4,10.3,0.2
		c1.9-2.3,3.1-5,3.7-8c1.7-7.6,1.8-15.2,0.6-22.9c-0.6-3.5-1.8-6.8-3.9-9.7c-2.9-3.8-7.1-3.9-10.1-0.2c-2,2.5-3.4,5.3-3.9,8.4
		C225.4,54.8,225,59,224.6,62.1z"/>
	<path d="M339.4,52.5c-3.1,0-6.1,0-9.1,0c-0.4-1.6-0.7-3.1-1.2-4.5c-1.4-4.2-5.4-5.7-9.2-3.4c-2.1,1.2-3.5,3.1-4.1,5.4
		c-0.6,2.3-1.2,4.7-1.4,7c-0.6,6.5-0.8,13.1,0.3,19.6c0.4,2.1,1,4.2,1.9,6.1c1.2,2.8,3.7,4.1,6.7,4.3c2.8,0.2,5.2-1.3,6.2-3.9
		c1.1-2.9,1.4-5.9,1.3-9.2c-2.3,0-4.5,0-6.9,0c0-3.3,0-6.3,0-9.4c5.5,0,10.9,0,16.4,0c0,2.8,0.2,5.5,0,8.2
		c-0.3,3.7-0.5,7.4-1.2,10.9c-1.5,7.2-6.6,11.9-13.2,12.7c-7.4,0.9-14.1-2.5-17.5-8.7c-1.7-3.1-2.7-6.5-3.1-10
		c-1.2-9.4-1.3-18.8,0.8-28.1c0.6-2.7,1.7-5.4,3-7.8c3-5.5,8-7.9,14.2-7.6c6.4,0.3,11.4,3,14.2,9C339.1,46,339.6,49.1,339.4,52.5z"
		/>
	<path d="M114.1,105c-3.2,0.8-6.1,1.5-9.2,2.3c-1.2-5-2.3-9.7-3.4-14.6c-3.7,0.8-7.3,1.6-11,2.5c-1.3,5.6-2.5,11.2-3.8,16.9
		c-3.3,0.9-6.6,1.7-10.3,2.6c4.8-21.5,9.6-42.7,14.3-64c3.4-0.7,6.8-1.4,10.3-2.2C105.4,67.3,109.7,86,114.1,105z M99.4,83.4
		c-1-4.4-2-8.5-3-12.7c-0.1,0-0.3,0-0.4,0c-1,4.6-2,9.2-3.2,14.2C95.2,84.3,97.2,83.9,99.4,83.4z"/>
	<path d="M71.6,105.7c0,3.6,0,6.7,0,10.2c-9.5,3.5-19.1,7-28.8,10.5c0-20.6,0-40.9,0-61.4c3.1-0.8,6.2-1.6,9.6-2.4
		c0,8.5,0,16.8,0,25c0,8.2,0,16.5,0,25.1C58.9,110.6,65,107.9,71.6,105.7z"/>
	<path d="M396.7,44.1c3.3,0.7,6.3,1.3,9.3,2c0,21.1,0,42,0,63.2c-1.7-0.3-3.3-0.6-4.8-0.9c-1.5-0.3-2.9-0.7-4.5-1
		C396.7,86.3,396.7,65.4,396.7,44.1z"/>
	<path d="M464.2,63.7c3.1,0.9,6,1.8,9.2,2.8c0.2,20.4,0.1,40.9,0.1,61.7c-1.8-0.5-3.4-0.9-4.9-1.3c-1.4-0.4-2.9-0.8-4.4-1.2
		C464.2,105,464.2,84.6,464.2,63.7z"/>
	<path d="M286,319.7c0.5,0.9,1,1.5,1.2,2.2c1,3.2,2.7,6,5.4,8c0.4,0.3,0.7,0.6,1,1c1.1,1.6,0.4,3.2-1.6,3.5c-5.1,0.8-9.8-4-8.8-9
		c0.3-1.5,0.9-2.9,1.4-4.3C284.9,320.7,285.4,320.4,286,319.7z"/>
</g>
</svg>
