<?xml version="1.0" encoding="utf-8"?>
<!-- Generator: Adobe Illustrator 19.2.1, SVG Export Plug-In . SVG Version: 6.00 Build 0)  -->
<svg version="1.1" id="svg67639" xmlns:svg="http://www.w3.org/2000/svg"
	 xmlns="http://www.w3.org/2000/svg" xmlns:xlink="http://www.w3.org/1999/xlink" x="0px" y="0px" viewBox="0 0 400 60"
	 style="enable-background:new 0 0 400 60;" xml:space="preserve">
<g id="g4078">
	<path id="path32894" d="M204.7,50.2c-1.9,0-9.1,0-9.1,0c-1.6,0-2.5-0.5-2.5-1.7c0-1.2,0.6-2,2.5-2h11.7v1.1
		C207.3,49.2,206.6,50.2,204.7,50.2 M224.2,47.6c0-1.6,0-4.8,0-6.3c0-6.9-4.5-10.9-14.3-10.9h-30.3v8.2h24.3c2.5,0,3.3,0.8,3.3,2.7
		v0.3c-2,0-14.8,0-19.4,0c-8.2,0-10.9,3.5-10.9,7.9c0,0.4,0,0.6,0,1c0,2,0.6,3.7,1.8,4.9c2.4,2.3,6.9,3,13.1,3c3.2,0,13.2,0,16.8,0
		C219.6,58.3,224.2,55.8,224.2,47.6"/>
	<path id="path32896" d="M276.5,38.4c1.9,0,9.3,0,9.3,0c1.6,0,2.6,0.6,2.6,1.8c0,1.2-0.5,1.9-2.5,1.9H274v-1.1
		C274,39.5,274.6,38.4,276.5,38.4 M257.1,42.3c0,1.6,0,3.4,0,4.9c0,6.9,4.5,10.9,14.3,10.9h31v-8.1h-25c-2.5,0-3.3-0.7-3.3-2.6V47
		c2,0,14.8,0,19.4,0c6.9,0,11-2.3,11-7.5c0-0.4,0-0.7,0-1.1c0-4.6-2.6-8-14.4-8c-3.2,0-13.7,0-17.4,0
		C261.6,30.4,257.1,34.1,257.1,42.3"/>
	<path id="path32898" d="M255.3,30.9c0,0-13.2,0-21.7,0c-3.5,0-5.7,1.9-5.7,4.9c0,1.5,0,22.2,0,22.2h16.9V39.2h10.6L255.3,30.9"/>
	<path id="path32900" d="M161.4,26h-16.9V58h30v-8.4h-13.1V26"/>
	<path id="path32902" d="M140.4,39.3c-5.8,0-21.2,0-22.2,0c-2.4,0-4.2,1.4-4.2,5.1c0,4.1,2.2,5.3,4.4,5.3c2,0,22.4,0,22.4,0V58
		c0,0-23.1,0-27.3,0c-11.5,0-16.5-3.6-16.5-12.5v-2c0-7.6,4.7-12.5,15.9-12.5c0.1,0,19.6,0,27.6,0V39.3"/>
	<path id="path32904" d="M58.7,58l17.8-16.3l0,16.3h17V26c0,0-4.9,0-9.9,0c-4.1,0-7,1.7-9.7,4.1c-3.1,2.7-14.3,12.4-14.3,12.4V26
		c0,0-4.5,0-10,0c-5.7,0-8.5,1.9-11.6,4.4C35.8,32.1,2.5,58,2.5,58h20.1l19.9-16.4V58H58.7"/>
	<path id="path32906" d="M307.7,58V30.8h26.8c13.6,0,18.4,2.7,18.4,12.3c0,4.4,0,15,0,15h-16.9c0,0,0-10.5,0-12.2
		c0-3.2-1.8-6.1-6.8-6.1c-1.2,0-4.5,0-4.5,0V58L307.7,58"/>
</g>
<g>
	<path d="M392.2,3.3c-11.4-3.9-39.6,3.3-64.2,16.3l-6,3.8c0.6-0.2,1.2-0.3,1.8-0.5c5.4-1.5,12.3-2.8,19-3.3
		c3.7-0.3,7.7-0.3,11.3,0.2c1.4,0.2,2.8,0.5,4,0.8c4.3,1.2,7,3.4,8,6.4c1.4,4.2-0.6,10-5.9,17.3c32.9-21.9,37-32.2,36.5-36.4
		C396.6,5.8,395,4.3,392.2,3.3z"/>
	<path d="M397.9,7.8c-0.3-2.5-2.1-4.4-5.3-5.4c-11.9-4-39.8,3-65,16.4c0,0,0,0,0,0c0,0,0,0,0,0c0,0,0,0,0,0l-9.2,5.9c0,0,0,0,0,0
		c-0.1,0-0.1,0.1-0.1,0.1c0,0,0,0,0,0c0,0.1-0.1,0.1-0.1,0.2c0,0,0,0,0,0c0,0,0,0,0,0c0,0,0,0.1,0,0.1c0,0,0,0,0,0.1c0,0,0,0,0,0
		c0,0,0,0,0,0c0,0,0.1,0.1,0.1,0.1c0,0,0,0,0,0c0.1,0,0.1,0.1,0.2,0.1c0,0,0,0,0,0c0,0,0,0,0,0c0,0,0.1,0,0.1,0
		c1.6-0.6,3.5-1.1,5.4-1.6c2-0.5,4.2-1,6.3-1.5c2.9-0.6,7.8-1.5,13.1-1.8c4.5-0.3,8.8-0.2,12.4,0.5c1.6,0.3,3,0.7,4.3,1.3
		c2.8,1.2,4.5,3.1,5.1,5.4c1.1,4.3-1.5,10.4-7.6,18.2l0,0c-0.1,0.1-0.1,0.2-0.1,0.3c0,0.2,0.1,0.4,0.3,0.4c0.1,0,0.2,0.1,0.2,0.1
		c0.1,0,0.2,0,0.3-0.1C385.3,29.2,398.9,15.7,397.9,7.8z M360.4,44.3c5.3-7.3,7.2-13.1,5.9-17.3c-1-3-3.7-5.2-8-6.4
		c-1.2-0.4-2.6-0.6-4-0.8c-3.6-0.5-7.6-0.4-11.3-0.2c-6.6,0.5-13.5,1.8-19,3.3c-0.6,0.2-1.2,0.3-1.8,0.5l6-3.8
		c24.6-13,52.8-20.2,64.2-16.3c2.8,0.9,4.3,2.5,4.6,4.6C397.4,12.2,393.3,22.4,360.4,44.3z"/>
</g>
</svg>
